<mxfile host="app.diagrams.net" agent="Mozilla/5.0 (Windows NT 10.0; Win64; x64) AppleWebKit/537.36 (KHTML, like Gecko) Chrome/131.0.0.0 Safari/537.36" version="24.9.3">
  <diagram id="R2lEEEUBdFMjLlhIrx00" name="Page-1">
    <mxGraphModel dx="1257" dy="657" grid="1" gridSize="10" guides="1" tooltips="1" connect="1" arrows="1" fold="1" page="1" pageScale="1" pageWidth="1100" pageHeight="850" math="0" shadow="0" extFonts="Permanent Marker^https://fonts.googleapis.com/css?family=Permanent+Marker">
      <root>
        <mxCell id="0" />
        <mxCell id="1" parent="0" />
        <mxCell id="bi-Wzq8V2nykNUkSVaRO-188" value="" style="edgeStyle=orthogonalEdgeStyle;rounded=0;orthogonalLoop=1;jettySize=auto;html=1;entryX=1;entryY=0.5;entryDx=0;entryDy=0;" edge="1" parent="1" source="bi-Wzq8V2nykNUkSVaRO-182" target="bi-Wzq8V2nykNUkSVaRO-189">
          <mxGeometry relative="1" as="geometry">
            <mxPoint x="270.0000000000002" y="120" as="targetPoint" />
          </mxGeometry>
        </mxCell>
        <mxCell id="bi-Wzq8V2nykNUkSVaRO-191" value="" style="edgeStyle=orthogonalEdgeStyle;rounded=0;orthogonalLoop=1;jettySize=auto;html=1;entryX=0;entryY=0.5;entryDx=0;entryDy=0;" edge="1" parent="1" source="bi-Wzq8V2nykNUkSVaRO-182" target="bi-Wzq8V2nykNUkSVaRO-192">
          <mxGeometry relative="1" as="geometry">
            <mxPoint x="750" y="120" as="targetPoint" />
          </mxGeometry>
        </mxCell>
        <mxCell id="bi-Wzq8V2nykNUkSVaRO-182" value="&lt;font style=&quot;font-size: 18px;&quot;&gt;&lt;b&gt;USER&lt;/b&gt;&lt;/font&gt;" style="rounded=0;whiteSpace=wrap;html=1;fillColor=#dae8fc;strokeColor=#6c8ebf;" vertex="1" parent="1">
          <mxGeometry x="440" y="80" width="180" height="80" as="geometry" />
        </mxCell>
        <mxCell id="bi-Wzq8V2nykNUkSVaRO-198" value="" style="edgeStyle=orthogonalEdgeStyle;rounded=0;orthogonalLoop=1;jettySize=auto;html=1;entryX=1;entryY=0.5;entryDx=0;entryDy=0;" edge="1" parent="1" source="bi-Wzq8V2nykNUkSVaRO-183" target="bi-Wzq8V2nykNUkSVaRO-199">
          <mxGeometry relative="1" as="geometry">
            <mxPoint x="50" y="300" as="targetPoint" />
          </mxGeometry>
        </mxCell>
        <mxCell id="bi-Wzq8V2nykNUkSVaRO-206" style="edgeStyle=orthogonalEdgeStyle;rounded=0;orthogonalLoop=1;jettySize=auto;html=1;exitX=0;exitY=0;exitDx=0;exitDy=0;entryX=1;entryY=0.5;entryDx=0;entryDy=0;" edge="1" parent="1" source="bi-Wzq8V2nykNUkSVaRO-183" target="bi-Wzq8V2nykNUkSVaRO-207">
          <mxGeometry relative="1" as="geometry">
            <mxPoint x="80" y="190" as="targetPoint" />
          </mxGeometry>
        </mxCell>
        <mxCell id="bi-Wzq8V2nykNUkSVaRO-209" style="edgeStyle=orthogonalEdgeStyle;rounded=0;orthogonalLoop=1;jettySize=auto;html=1;exitX=0;exitY=1;exitDx=0;exitDy=0;entryX=1;entryY=0.5;entryDx=0;entryDy=0;" edge="1" parent="1" source="bi-Wzq8V2nykNUkSVaRO-183" target="bi-Wzq8V2nykNUkSVaRO-208">
          <mxGeometry relative="1" as="geometry" />
        </mxCell>
        <mxCell id="bi-Wzq8V2nykNUkSVaRO-183" value="&lt;font style=&quot;font-size: 18px;&quot;&gt;&lt;b&gt;PLAYLISTS&lt;/b&gt;&lt;/font&gt;" style="rounded=0;whiteSpace=wrap;html=1;fillColor=#dae8fc;strokeColor=#6c8ebf;" vertex="1" parent="1">
          <mxGeometry x="180" y="260" width="180" height="80" as="geometry" />
        </mxCell>
        <mxCell id="bi-Wzq8V2nykNUkSVaRO-184" value="" style="edgeStyle=orthogonalEdgeStyle;endArrow=ERzeroToMany;startArrow=ERone;endFill=1;startFill=0;exitX=0;exitY=0.5;exitDx=0;exitDy=0;entryX=0.5;entryY=0;entryDx=0;entryDy=0;curved=1;" edge="1" parent="1" source="bi-Wzq8V2nykNUkSVaRO-182" target="bi-Wzq8V2nykNUkSVaRO-183">
          <mxGeometry width="100" height="100" relative="1" as="geometry">
            <mxPoint x="400" y="70" as="sourcePoint" />
            <mxPoint x="270" y="240" as="targetPoint" />
          </mxGeometry>
        </mxCell>
        <mxCell id="bi-Wzq8V2nykNUkSVaRO-189" value="USER BASIC INFO" style="ellipse;whiteSpace=wrap;html=1;fillColor=#d5e8d4;strokeColor=#82b366;fontStyle=0" vertex="1" parent="1">
          <mxGeometry x="190" y="80" width="120" height="80" as="geometry" />
        </mxCell>
        <mxCell id="bi-Wzq8V2nykNUkSVaRO-192" value="USER ID" style="ellipse;whiteSpace=wrap;html=1;fillColor=#d5e8d4;strokeColor=#82b366;fontStyle=1" vertex="1" parent="1">
          <mxGeometry x="710" y="80" width="120" height="80" as="geometry" />
        </mxCell>
        <mxCell id="bi-Wzq8V2nykNUkSVaRO-193" value="&lt;b&gt;CREATES&lt;/b&gt;" style="text;html=1;align=center;verticalAlign=middle;whiteSpace=wrap;rounded=0;fillColor=#f8cecc;strokeColor=#b85450;" vertex="1" parent="1">
          <mxGeometry x="330" y="180" width="60" height="30" as="geometry" />
        </mxCell>
        <mxCell id="bi-Wzq8V2nykNUkSVaRO-194" value="&lt;span style=&quot;font-size: 18px;&quot;&gt;&lt;b&gt;ARTIST&lt;/b&gt;&lt;/span&gt;" style="rounded=0;whiteSpace=wrap;html=1;fillColor=#dae8fc;strokeColor=#6c8ebf;" vertex="1" parent="1">
          <mxGeometry x="730" y="260" width="180" height="80" as="geometry" />
        </mxCell>
        <mxCell id="bi-Wzq8V2nykNUkSVaRO-195" value="" style="edgeStyle=entityRelationEdgeStyle;endArrow=ERzeroToMany;startArrow=ERone;endFill=1;startFill=0;exitX=1;exitY=0.5;exitDx=0;exitDy=0;entryX=0.5;entryY=0;entryDx=0;entryDy=0;" edge="1" parent="1" source="bi-Wzq8V2nykNUkSVaRO-182" target="bi-Wzq8V2nykNUkSVaRO-194">
          <mxGeometry width="100" height="100" relative="1" as="geometry">
            <mxPoint x="635" y="270" as="sourcePoint" />
            <mxPoint x="810" y="210" as="targetPoint" />
            <Array as="points">
              <mxPoint x="455" y="340" />
              <mxPoint x="535" y="320" />
              <mxPoint x="505" y="310" />
              <mxPoint x="475" y="350" />
              <mxPoint x="595" y="330" />
            </Array>
          </mxGeometry>
        </mxCell>
        <mxCell id="bi-Wzq8V2nykNUkSVaRO-196" value="&lt;b&gt;FOLLOWS&lt;/b&gt;" style="text;html=1;align=center;verticalAlign=middle;whiteSpace=wrap;rounded=0;fillColor=#f8cecc;strokeColor=#b85450;" vertex="1" parent="1">
          <mxGeometry x="690" y="180" width="60" height="30" as="geometry" />
        </mxCell>
        <mxCell id="bi-Wzq8V2nykNUkSVaRO-199" value="&lt;b&gt;PLAYLIST ID&lt;/b&gt;" style="ellipse;whiteSpace=wrap;html=1;fillColor=#d5e8d4;strokeColor=#82b366;" vertex="1" parent="1">
          <mxGeometry x="10" y="260" width="120" height="80" as="geometry" />
        </mxCell>
        <mxCell id="bi-Wzq8V2nykNUkSVaRO-207" value="NAME" style="ellipse;whiteSpace=wrap;html=1;fillColor=#d5e8d4;strokeColor=#82b366;fontStyle=1" vertex="1" parent="1">
          <mxGeometry x="10" y="170" width="120" height="80" as="geometry" />
        </mxCell>
        <mxCell id="bi-Wzq8V2nykNUkSVaRO-208" value="PLAYLIST ID" style="ellipse;whiteSpace=wrap;html=1;fillColor=#d5e8d4;strokeColor=#82b366;fontStyle=0" vertex="1" parent="1">
          <mxGeometry x="10" y="370" width="120" height="80" as="geometry" />
        </mxCell>
        <mxCell id="bi-Wzq8V2nykNUkSVaRO-217" value="" style="edgeStyle=orthogonalEdgeStyle;rounded=0;orthogonalLoop=1;jettySize=auto;html=1;entryX=1;entryY=0.5;entryDx=0;entryDy=0;" edge="1" parent="1" source="bi-Wzq8V2nykNUkSVaRO-213" target="bi-Wzq8V2nykNUkSVaRO-218">
          <mxGeometry relative="1" as="geometry">
            <mxPoint x="110" y="550" as="targetPoint" />
          </mxGeometry>
        </mxCell>
        <mxCell id="bi-Wzq8V2nykNUkSVaRO-220" style="edgeStyle=orthogonalEdgeStyle;rounded=0;orthogonalLoop=1;jettySize=auto;html=1;exitX=0;exitY=1;exitDx=0;exitDy=0;entryX=1;entryY=0.5;entryDx=0;entryDy=0;" edge="1" parent="1" source="bi-Wzq8V2nykNUkSVaRO-213" target="bi-Wzq8V2nykNUkSVaRO-219">
          <mxGeometry relative="1" as="geometry" />
        </mxCell>
        <mxCell id="bi-Wzq8V2nykNUkSVaRO-213" value="&lt;span style=&quot;font-size: 18px;&quot;&gt;&lt;b&gt;SONGS&lt;/b&gt;&lt;/span&gt;" style="rounded=0;whiteSpace=wrap;html=1;fillColor=#dae8fc;strokeColor=#6c8ebf;" vertex="1" parent="1">
          <mxGeometry x="180" y="520" width="180" height="80" as="geometry" />
        </mxCell>
        <mxCell id="bi-Wzq8V2nykNUkSVaRO-215" value="" style="endArrow=ERzeroToMany;startArrow=ERone;endFill=1;startFill=0;exitX=0.5;exitY=1;exitDx=0;exitDy=0;entryX=0.5;entryY=0;entryDx=0;entryDy=0;" edge="1" parent="1" source="bi-Wzq8V2nykNUkSVaRO-183" target="bi-Wzq8V2nykNUkSVaRO-213">
          <mxGeometry width="100" height="100" relative="1" as="geometry">
            <mxPoint x="600" y="370" as="sourcePoint" />
            <mxPoint x="430" y="510" as="targetPoint" />
          </mxGeometry>
        </mxCell>
        <mxCell id="bi-Wzq8V2nykNUkSVaRO-218" value="SONG ID" style="ellipse;whiteSpace=wrap;html=1;fillColor=#d5e8d4;strokeColor=#82b366;fontStyle=0" vertex="1" parent="1">
          <mxGeometry x="20" y="520" width="120" height="80" as="geometry" />
        </mxCell>
        <mxCell id="bi-Wzq8V2nykNUkSVaRO-219" value="TITLE" style="ellipse;whiteSpace=wrap;html=1;fillColor=#d5e8d4;strokeColor=#82b366;fontStyle=0" vertex="1" parent="1">
          <mxGeometry x="20" y="610" width="120" height="80" as="geometry" />
        </mxCell>
      </root>
    </mxGraphModel>
  </diagram>
</mxfile>
